<?xml version="1.0" encoding="UTF-8" standalone="no"?>
<!-- Created with Inkscape (http://www.inkscape.org/) -->

<svg
   xmlns:dc="http://purl.org/dc/elements/1.1/"
   xmlns:cc="http://creativecommons.org/ns#"
   xmlns:rdf="http://www.w3.org/1999/02/22-rdf-syntax-ns#"
   xmlns:svg="http://www.w3.org/2000/svg"
   xmlns="http://www.w3.org/2000/svg"
   xmlns:sodipodi="http://sodipodi.sourceforge.net/DTD/sodipodi-0.dtd"
   xmlns:inkscape="http://www.inkscape.org/namespaces/inkscape"
   width="233.71761"
   height="36.336285"
   id="svg2"
   version="1.1"
   inkscape:version="0.48.2 r9819"
   sodipodi:docname="logo_path.svg">
  <defs
     id="defs4" />
  <sodipodi:namedview
     id="base"
     pagecolor="#ffffff"
     bordercolor="#666666"
     borderopacity="1.0"
     inkscape:pageopacity="0.0"
     inkscape:pageshadow="2"
     inkscape:zoom="3.825129"
     inkscape:cx="116.8588"
     inkscape:cy="18.168142"
     inkscape:document-units="px"
     inkscape:current-layer="layer1"
     showgrid="false"
     inkscape:window-width="1366"
     inkscape:window-height="746"
     inkscape:window-x="-8"
     inkscape:window-y="-8"
     inkscape:window-maximized="1"
     fit-margin-top="0"
     fit-margin-left="0"
     fit-margin-right="0"
     fit-margin-bottom="0">
    <inkscape:grid
       type="xygrid"
       id="grid3075"
       units="mm"
       empspacing="5"
       visible="true"
       enabled="true"
       snapvisiblegridlinesonly="true" />
  </sodipodi:namedview>
  <metadata
     id="metadata7">
    <rdf:RDF>
      <cc:Work
         rdf:about="">
        <dc:format>image/svg+xml</dc:format>
        <dc:type
           rdf:resource="http://purl.org/dc/dcmitype/StillImage" />
        <dc:title></dc:title>
      </cc:Work>
    </rdf:RDF>
  </metadata>
  <g
     inkscape:label="Layer 1"
     inkscape:groupmode="layer"
     id="layer1"
     transform="translate(-116.72556,-166.96551)">
    <path
       inkscape:connector-curvature="0"
       id="path3861"
       style="font-size:48px;font-style:normal;font-variant:normal;font-weight:bold;font-stretch:normal;text-align:start;line-height:125%;letter-spacing:-1.5px;word-spacing:0px;writing-mode:lr-tb;text-anchor:start;fill:#2f5496;fill-opacity:1;stroke:none;font-family:Trebuchet MS;-inkscape-font-specification:Trebuchet MS Bold"
       d="m 134.04588,202.83304 0,-1.52344 c -0.48439,0.53125 -1.3047,0.9961 -2.46093,1.39453 -1.15627,0.39844 -2.35158,0.59766 -3.58594,0.59766 -3.50001,0 -6.25392,-1.10938 -8.26172,-3.32813 -2.00782,-2.21874 -3.01172,-5.31249 -3.01172,-9.28125 0,-3.96873 1.15234,-7.1992 3.45703,-9.6914 2.30468,-2.49217 5.1914,-3.73826 8.66016,-3.73828 1.90623,2e-5 3.64061,0.39065 5.20312,1.17187 l 0,-10.05469 5.85938,-1.40625 0,35.85938 z m 0,-19.10156 c -1.25001,-0.99998 -2.5547,-1.49998 -3.91406,-1.5 -2.34376,2e-5 -4.14845,0.71486 -5.41406,2.14453 -1.26564,1.4297 -1.89845,3.48048 -1.89844,6.15234 -1e-5,5.21876 2.51562,7.82813 7.54688,7.82813 0.56248,0 1.25389,-0.16797 2.07421,-0.50391 0.8203,-0.33593 1.35545,-0.67578 1.60547,-1.01953 z" />
    <path
       inkscape:connector-curvature="0"
       id="path3863"
       style="font-size:48px;font-style:normal;font-variant:normal;font-weight:bold;font-stretch:normal;text-align:start;line-height:125%;letter-spacing:-1.5px;word-spacing:0px;writing-mode:lr-tb;text-anchor:start;fill:#2f5496;fill-opacity:1;stroke:none;font-family:Trebuchet MS;-inkscape-font-specification:Trebuchet MS Bold"
       d="m 148.83495,168.00491 c 0.93749,4e-5 1.73827,0.33207 2.40234,0.9961 0.66405,0.66409 0.99608,1.46487 0.99609,2.40234 -1e-5,0.93753 -0.33204,1.73831 -0.99609,2.40234 -0.66407,0.6641 -1.46485,0.99613 -2.40234,0.9961 -0.93751,3e-5 -1.73829,-0.332 -2.40235,-0.9961 -0.66407,-0.66403 -0.9961,-1.46481 -0.99609,-2.40234 -1e-5,-0.93747 0.33202,-1.73825 0.99609,-2.40234 0.66406,-0.66403 1.46484,-0.99606 2.40235,-0.9961 z m -3.02344,34.82813 0,-20.29688 -3.21094,0 0,-4.80468 9.14063,0 0,25.10156 z" />
    <path
       inkscape:connector-curvature="0"
       id="path3865"
       style="font-size:48px;font-style:normal;font-variant:normal;font-weight:bold;font-stretch:normal;text-align:start;line-height:125%;letter-spacing:-1.5px;word-spacing:0px;writing-mode:lr-tb;text-anchor:start;fill:#2f5496;fill-opacity:1;stroke:none;font-family:Trebuchet MS;-inkscape-font-specification:Trebuchet MS Bold"
       d="m 155.53807,201.21585 2.08594,-4.66406 c 1.74999,1.39063 3.72655,2.08594 5.92969,2.08594 2.28123,0 3.42186,-0.8125 3.42187,-2.4375 -1e-5,-0.95312 -0.34376,-1.73437 -1.03125,-2.34375 -0.68751,-0.60937 -2.02345,-1.32812 -4.00781,-2.15625 -4.32813,-1.79687 -6.49219,-4.31249 -6.49219,-7.54688 0,-2.17185 0.82812,-3.86326 2.48438,-5.07422 1.65624,-1.21091 3.77343,-1.81638 6.35156,-1.8164 2.60936,2e-5 5.06248,0.58596 7.35937,1.75781 l -1.6875,4.54687 c -1.28126,-1.09373 -3.06251,-1.6406 -5.34375,-1.64062 -2.04688,2e-5 -3.07032,0.81252 -3.07031,2.4375 -1e-5,0.64064 0.33593,1.21877 1.00781,1.73437 0.67187,0.51564 2.10937,1.20705 4.3125,2.07422 2.20311,0.8672 3.78905,1.91798 4.75782,3.15235 0.96873,1.23438 1.4531,2.72657 1.45312,4.47656 -2e-5,2.32813 -0.8633,4.16016 -2.58984,5.49609 -1.72658,1.33594 -4.07423,2.00391 -7.04297,2.00391 -1.67188,0 -3.01173,-0.13672 -4.01953,-0.41016 -1.00782,-0.27344 -2.30079,-0.83203 -3.87891,-1.67578 z" />
    <path
       inkscape:connector-curvature="0"
       id="path3867"
       style="font-size:48px;font-style:normal;font-variant:normal;font-weight:bold;font-stretch:normal;text-align:start;line-height:125%;letter-spacing:-1.5px;word-spacing:0px;writing-mode:lr-tb;text-anchor:start;fill:#2f5496;fill-opacity:1;stroke:none;font-family:Trebuchet MS;-inkscape-font-specification:Trebuchet MS Bold"
       d="m 177.19432,182.44241 -2.90625,0 0,-4.71093 2.90625,0 0,-5.10938 5.85938,-2.15625 0,7.26563 6.89062,0 0,4.71093 -6.89062,0 0,10.99219 c -1e-5,1.79688 0.28124,3.06641 0.84375,3.80859 0.56248,0.7422 1.54686,1.11329 2.95312,1.11329 1.40624,0 2.71873,-0.38281 3.9375,-1.14844 l 0,5.39062 c -1.35939,0.46875 -3.29689,0.70313 -5.8125,0.70313 -2.50001,0 -4.42188,-0.70703 -5.76562,-2.1211 -1.34376,-1.41405 -2.01563,-3.42577 -2.01563,-6.03515 z" />
    <path
       inkscape:connector-curvature="0"
       id="path3869"
       style="font-size:48px;font-style:normal;font-variant:normal;font-weight:bold;font-stretch:normal;text-align:start;line-height:125%;letter-spacing:-1.5px;word-spacing:0px;writing-mode:lr-tb;text-anchor:start;fill:#2f5496;fill-opacity:1;stroke:none;font-family:Trebuchet MS;-inkscape-font-specification:Trebuchet MS Bold"
       d="m 198.4287,168.00491 c 0.93749,4e-5 1.73827,0.33207 2.40234,0.9961 0.66405,0.66409 0.99608,1.46487 0.99609,2.40234 -1e-5,0.93753 -0.33204,1.73831 -0.99609,2.40234 -0.66407,0.6641 -1.46485,0.99613 -2.40234,0.9961 -0.93751,3e-5 -1.73829,-0.332 -2.40235,-0.9961 -0.66407,-0.66403 -0.9961,-1.46481 -0.99609,-2.40234 -1e-5,-0.93747 0.33202,-1.73825 0.99609,-2.40234 0.66406,-0.66403 1.46484,-0.99606 2.40235,-0.9961 z m -3.02344,34.82813 0,-20.29688 -3.21094,0 0,-4.80468 9.14063,0 0,25.10156 z" />
    <path
       inkscape:connector-curvature="0"
       id="path3871"
       style="font-size:48px;font-style:normal;font-variant:normal;font-weight:bold;font-stretch:normal;text-align:start;line-height:125%;letter-spacing:-1.5px;word-spacing:0px;writing-mode:lr-tb;text-anchor:start;fill:#2f5496;fill-opacity:1;stroke:none;font-family:Trebuchet MS;-inkscape-font-specification:Trebuchet MS Bold"
       d="m 222.82713,202.83304 0,-14.50781 c -2e-5,-2.14061 -0.41017,-3.70311 -1.23047,-4.6875 -0.82033,-0.98436 -2.16017,-1.47655 -4.01953,-1.47657 -0.85939,2e-5 -1.77735,0.24221 -2.7539,0.72657 -0.97658,0.48439 -1.73829,1.08595 -2.28516,1.80468 l 0,18.14063 -5.85937,0 0,-25.10156 4.21875,0 1.07812,2.34375 c 1.59374,-1.87498 3.9453,-2.81248 7.05469,-2.8125 2.98435,2e-5 5.33982,0.89455 7.0664,2.68359 1.72654,1.78908 2.58982,4.28517 2.58985,7.48828 l 0,15.39844 z" />
    <path
       inkscape:connector-curvature="0"
       id="path3873"
       style="font-size:48px;font-style:normal;font-variant:normal;font-weight:bold;font-stretch:normal;text-align:start;line-height:125%;letter-spacing:-1.5px;word-spacing:0px;writing-mode:lr-tb;text-anchor:start;fill:#2f5496;fill-opacity:1;stroke:none;font-family:Trebuchet MS;-inkscape-font-specification:Trebuchet MS Bold"
       d="m 253.1787,179.72366 -2.50782,4.38282 c -1.37502,-1.29686 -3.21876,-1.9453 -5.53125,-1.94532 -2.21876,2e-5 -3.97266,0.7383 -5.26172,2.21485 -1.28907,1.47658 -1.9336,3.51954 -1.93359,6.1289 -1e-5,5.26564 2.5078,7.89845 7.52344,7.89844 2.17186,1e-5 4.08592,-0.71874 5.74219,-2.15625 l 2.15625,4.61719 c -1.70315,1.0625 -3.19143,1.73437 -4.46485,2.01562 -1.27345,0.28125 -2.77736,0.42188 -4.51172,0.42188 -3.87501,0 -6.9336,-1.12891 -9.17578,-3.38672 -2.24219,-2.25781 -3.36328,-5.39452 -3.36328,-9.41016 0,-3.95311 1.22656,-7.14841 3.67969,-9.58593 2.45312,-2.43748 5.79686,-3.65623 10.03125,-3.65625 2.92186,2e-5 5.46091,0.82033 7.61719,2.46093 z" />
    <path
       inkscape:connector-curvature="0"
       id="path3875"
       style="font-size:48px;font-style:normal;font-variant:normal;font-weight:bold;font-stretch:normal;text-align:start;line-height:125%;letter-spacing:-1.5px;word-spacing:0px;writing-mode:lr-tb;text-anchor:start;fill:#2f5496;fill-opacity:1;stroke:none;font-family:Trebuchet MS;-inkscape-font-specification:Trebuchet MS Bold"
       d="m 257.44432,182.44241 -2.90625,0 0,-4.71093 2.90625,0 0,-5.10938 5.85938,-2.15625 0,7.26563 6.89062,0 0,4.71093 -6.89062,0 0,10.99219 c -10e-6,1.79688 0.28124,3.06641 0.84375,3.80859 0.56248,0.7422 1.54686,1.11329 2.95312,1.11329 1.40624,0 2.71873,-0.38281 3.9375,-1.14844 l 0,5.39062 c -1.35939,0.46875 -3.29689,0.70313 -5.8125,0.70313 -2.50001,0 -4.42188,-0.70703 -5.76562,-2.1211 -1.34376,-1.41405 -2.01563,-3.42577 -2.01563,-6.03515 z" />
    <path
       inkscape:connector-curvature="0"
       id="path3877"
       style="font-size:48px;font-style:normal;font-variant:normal;font-weight:bold;font-stretch:normal;text-align:start;line-height:125%;letter-spacing:-1.5px;word-spacing:0px;writing-mode:lr-tb;text-anchor:start;fill:#2f5496;fill-opacity:1;stroke:none;font-family:Trebuchet MS;-inkscape-font-specification:Trebuchet MS Bold"
       d="m 278.6787,168.00491 c 0.93749,4e-5 1.73827,0.33207 2.40234,0.9961 0.66405,0.66409 0.99608,1.46487 0.99609,2.40234 -1e-5,0.93753 -0.33204,1.73831 -0.99609,2.40234 -0.66407,0.6641 -1.46485,0.99613 -2.40234,0.9961 -0.93751,3e-5 -1.73829,-0.332 -2.40235,-0.9961 -0.66407,-0.66403 -0.9961,-1.46481 -0.99609,-2.40234 -10e-6,-0.93747 0.33202,-1.73825 0.99609,-2.40234 0.66406,-0.66403 1.46484,-0.99606 2.40235,-0.9961 z m -3.02344,34.82813 0,-20.29688 -3.21094,0 0,-4.80468 9.14063,0 0,25.10156 z" />
    <path
       inkscape:connector-curvature="0"
       id="path3879"
       style="font-size:48px;font-style:normal;font-variant:normal;font-weight:bold;font-stretch:normal;text-align:start;line-height:125%;letter-spacing:-1.5px;word-spacing:0px;writing-mode:lr-tb;text-anchor:start;fill:#2f5496;fill-opacity:1;stroke:none;font-family:Trebuchet MS;-inkscape-font-specification:Trebuchet MS Bold"
       d="m 285.28807,190.22366 c 0,-3.82811 1.10547,-6.94529 3.31641,-9.35156 2.21093,-2.40622 5.12889,-3.60935 8.7539,-3.60937 3.81249,2e-5 6.77342,1.15627 8.88282,3.46875 2.10935,2.31252 3.16403,5.47657 3.16406,9.49218 -3e-5,4.00001 -1.07425,7.1797 -3.22266,9.53907 -2.14846,2.35937 -5.08986,3.53906 -8.82422,3.53906 -3.81251,0 -6.77735,-1.19141 -8.89453,-3.57422 -2.11719,-2.38281 -3.17578,-5.55077 -3.17578,-9.50391 z m 6.09375,0 c -1e-5,5.53126 1.99218,8.29688 5.97656,8.29688 1.82811,0 3.27733,-0.71875 4.34766,-2.15625 1.07029,-1.43749 1.60545,-3.48437 1.60547,-6.14063 -2e-5,-5.4531 -1.98439,-8.17966 -5.95313,-8.17968 -1.82813,2e-5 -3.28126,0.71877 -4.35937,2.15625 -1.07813,1.43751 -1.6172,3.44532 -1.61719,6.02343 z" />
    <path
       inkscape:connector-curvature="0"
       id="path3881"
       style="font-size:48px;font-style:normal;font-variant:normal;font-weight:bold;font-stretch:normal;text-align:start;line-height:125%;letter-spacing:-1.5px;word-spacing:0px;writing-mode:lr-tb;text-anchor:start;fill:#2f5496;fill-opacity:1;stroke:none;font-family:Trebuchet MS;-inkscape-font-specification:Trebuchet MS Bold"
       d="m 328.76463,202.83304 0,-14.50781 c -2e-5,-2.14061 -0.41017,-3.70311 -1.23047,-4.6875 -0.82033,-0.98436 -2.16017,-1.47655 -4.01953,-1.47657 -0.85939,2e-5 -1.77735,0.24221 -2.7539,0.72657 -0.97658,0.48439 -1.73829,1.08595 -2.28516,1.80468 l 0,18.14063 -5.85937,0 0,-25.10156 4.21875,0 1.07812,2.34375 c 1.59374,-1.87498 3.9453,-2.81248 7.05469,-2.8125 2.98435,2e-5 5.33982,0.89455 7.0664,2.68359 1.72654,1.78908 2.58982,4.28517 2.58985,7.48828 l 0,15.39844 z" />
    <path
       d="m 338.84947,168.39122 5.85938,-1.42571 0,26.46909 c -10e-6,1.79688 0.28124,3.06641 0.84375,3.8086 0.56249,0.74219 1.1094,1.11327 2.29693,1.11328 1.05627,0 2.13777,-0.3207 2.59364,-0.64826 l 0,5.09 c -1.35939,0.46875 -2.34675,0.50357 -3.81245,0.50357 -2.50001,0 -4.42188,-0.70703 -5.76562,-2.12109 -1.34376,-1.41406 -2.01563,-3.42578 -2.01563,-6.03516 z"
       style="font-size:48px;font-style:normal;font-variant:normal;font-weight:bold;font-stretch:normal;text-align:start;line-height:125%;letter-spacing:0px;word-spacing:0px;writing-mode:lr-tb;text-anchor:start;fill:#1f3864;fill-opacity:1;stroke:none;font-family:Trebuchet MS;-inkscape-font-specification:Trebuchet MS Bold"
       id="path3925-1"
       inkscape:connector-curvature="0"
       sodipodi:nodetypes="ccccsccsscc" />
  </g>
</svg>
